<svg xmlns="http://www.w3.org/2000/svg" version="1.1" xmlns:xlink="http://www.w3.org/1999/xlink" width="512" height="512" x="0" y="0" viewBox="0 0 24 24" style="enable-background:new 0 0 512 512" xml:space="preserve" fill-rule="evenodd"><g><path d="M10.5 20.25H4c-.696 0-1.25-.594-1.25-1.312V5.563c0-.719.554-1.313 1.25-1.313h16c.696 0 1.25.594 1.25 1.313V12a.75.75 0 0 0 1.5 0V5.563c0-1.559-1.238-2.813-2.75-2.813H4c-1.512 0-2.75 1.254-2.75 2.813v13.375c0 1.558 1.238 2.812 2.75 2.812h6.5a.75.75 0 0 0 0-1.5z" fill="#ffffff" opacity="1" data-original="#000000"></path><path d="M4.75 2v3a.75.75 0 0 0 1.5 0V2a.75.75 0 0 0-1.5 0zM17.75 2v3a.75.75 0 0 0 1.5 0V2a.75.75 0 0 0-1.5 0zM11.25 2v3a.75.75 0 0 0 1.5 0V2a.75.75 0 0 0-1.5 0zM2 9.75h20a.75.75 0 0 0 0-1.5H2a.75.75 0 0 0 0 1.5zM17.25 11.75c-3.036 0-5.5 2.464-5.5 5.5s2.464 5.5 5.5 5.5 5.5-2.464 5.5-5.5-2.464-5.5-5.5-5.5zm0 1.5c2.208 0 4 1.792 4 4s-1.792 4-4 4-4-1.792-4-4 1.792-4 4-4z" fill="#ffffff" opacity="1" data-original="#000000"></path><path d="M16.5 15v2c0 .175.062.345.174.48l1.25 1.5a.75.75 0 0 0 1.152-.96L18 16.728V15a.75.75 0 0 0-1.5 0z" fill="#ffffff" opacity="1" data-original="#000000"></path></g></svg>