<svg xmlns="http://www.w3.org/2000/svg" version="1.1" xmlns:xlink="http://www.w3.org/1999/xlink" width="512" height="512" x="0" y="0" viewBox="0 0 16 16" style="enable-background:new 0 0 512 512" xml:space="preserve"><g><path d="M15.5 8.625h-3.625V5.5a.375.375 0 0 0-.375-.375H.5a.375.375 0 0 0-.375.375V9c0 .207.168.375.375.375h1.663a1.868 1.868 0 0 0 3.337.739 1.868 1.868 0 0 0 3.337-.739h4.288V10.5a.375.375 0 0 0 .75 0V9.375H15.5a.375.375 0 0 0 0-.75zM7 7.125c-.616 0-1.158.302-1.5.761a1.868 1.868 0 0 0-3.337.739H.875v-2.75h10.25v2.75H8.837A1.878 1.878 0 0 0 7 7.125zm-3 3c-.62 0-1.125-.505-1.125-1.125S3.38 7.875 4 7.875 5.125 8.38 5.125 9 4.62 10.125 4 10.125zm3 0c-.62 0-1.125-.505-1.125-1.125S6.38 7.875 7 7.875 8.125 8.38 8.125 9 7.62 10.125 7 10.125z" fill="#ffffff" opacity="1" data-original="#000000"></path></g></svg>