<svg xmlns="http://www.w3.org/2000/svg" version="1.1" xmlns:xlink="http://www.w3.org/1999/xlink" width="512" height="512" x="0" y="0" viewBox="0 0 32 32" style="enable-background:new 0 0 512 512" xml:space="preserve"><g><path d="M16 30C8.28 30 2 23.72 2 16S8.28 2 16 2s14 6.28 14 14-6.28 14-14 14zm0-26C9.38 4 4 9.38 4 16s5.38 12 12 12 12-5.38 12-12S22.62 4 16 4zm-.45 16.34 7.26-7.26a.996.996 0 1 0-1.41-1.41l-6.55 6.55-3.73-3.73a.996.996 0 1 0-1.41 1.41l4.44 4.44c.2.2.45.29.71.29s.49-.1.69-.29z" fill="#747474" opacity="1" data-original="#000000"></path></g></svg>