<svg xmlns="http://www.w3.org/2000/svg" version="1.1" xmlns:xlink="http://www.w3.org/1999/xlink" width="512" height="512" x="0" y="0" viewBox="0 0 128 128" style="enable-background:new 0 0 512 512" xml:space="preserve"><g><path d="M89 21H49.009a2 2 0 0 0 0 4h39.99a2 2 0 0 0 0-4zM89 34H35a2 2 0 1 0 0 4h54a2 2 0 0 0 0-4zM35 51H74.99a2 2 0 0 0 0-4H35a2 2 0 1 0 0 4zM33.587 27.414a2.033 2.033 0 0 0 2.828 0l1.586-1.586 1.586 1.586a2.035 2.035 0 0 0 2.828 0 2 2 0 0 0 0-2.829L40.83 23l1.586-1.586a2 2 0 0 0-2.828-2.829l-1.586 1.586-1.586-1.586a2 2 0 0 0-2.828 2.829L35.173 23l-1.586 1.585a2 2 0 0 0 0 2.829zM90.414 44.589a2 2 0 0 0-2.828 0L86 46.175l-1.586-1.586a2 2 0 0 0-2.828 2.828l1.586 1.586-1.586 1.586a2 2 0 0 0 0 2.828 2.033 2.033 0 0 0 2.828 0L86 51.831l1.586 1.586a2.032 2.032 0 0 0 2.828 0 2 2 0 0 0 0-2.828l-1.586-1.586 1.586-1.586a2 2 0 0 0 0-2.828zM33.753 76.919a2.037 2.037 0 0 0 2.828 0l1.586-1.586 1.586 1.586a2.043 2.043 0 0 0 2.828 0 2 2 0 0 0 0-2.828l-1.586-1.586 1.586-1.586a2 2 0 0 0-2.828-2.828l-1.586 1.586-1.586-1.586a2 2 0 0 0-2.828 2.828l1.586 1.586-1.586 1.586a2 2 0 0 0 0 2.828zM33 95a2 2 0 0 0 2 2h36.592l1.897-4H35a2 2 0 0 0-2 2z" fill="#ffffff" opacity="1" data-original="#000000"></path><path d="m66.015 124.235.014-.235H24a2.002 2.002 0 0 1-2-2V6a2.002 2.002 0 0 1 2-2h76a2.002 2.002 0 0 1 2 2v51.982l4 1.95V6a6.007 6.007 0 0 0-6-6H24a6.007 6.007 0 0 0-6 6v116a6.007 6.007 0 0 0 6 6h42.722a8.109 8.109 0 0 1-.718-3.402zM102 122a2.002 2.002 0 0 1-2 2H84.945l-4.7 4H100a6.007 6.007 0 0 0 6-6V87.49l-4 8.44z" fill="#ffffff" opacity="1" data-original="#000000"></path><path d="m107.77 65.24-9.933-4.84a4.025 4.025 0 0 0-5.346 1.886l-21.05 44.379a5.01 5.01 0 0 0-.445 1.995L70 124.603a3.184 3.184 0 0 0 1.713 3.137 3.254 3.254 0 0 0 3.439-.663l12.146-10.335a3.979 3.979 0 0 0 1.068-1.394l21.27-44.866a3.996 3.996 0 0 0-1.866-5.242zm-33.645 57.453.683-10.898 7.626 3.832zm11.126-10.128-9.837-4.942 20.69-43.619 9.91 4.78zM78.235 84H35a2 2 0 1 0 0 4h41.338zM84.402 71H49.009a2 2 0 0 0 0 4h33.496zM88.878 60.57a7.752 7.752 0 0 1 1.426-2.075A1.983 1.983 0 0 0 89 58H35a2 2 0 1 0 0 4h53.2z" fill="#ffffff" opacity="1" data-original="#000000"></path></g></svg>