<svg xmlns="http://www.w3.org/2000/svg" version="1.1" xmlns:xlink="http://www.w3.org/1999/xlink" width="512" height="512" x="0" y="0" viewBox="0 0 512.002 512.002" style="enable-background:new 0 0 512 512" xml:space="preserve" class=""><g><path d="M274.93 443.335H417.6c60.89 0 102.86-61.04 81.07-117.89l-22.18-57.86c-25.69-67.02-86.34-114.35-157.6-122.97l-171.39-20.74c-39.78-4.82-77.03 9.54-103.09 35.4-22.7 22.53-36.91 53.77-36.91 88.68 0 107.9 87.48 195.38 195.38 195.38h37.05" style="stroke-width:15;stroke-linecap:round;stroke-linejoin:round;stroke-miterlimit:10;" fill="none" stroke="#ffffff" stroke-width="15" stroke-linecap="round" stroke-linejoin="round" stroke-miterlimit="10" data-original="#000000" opacity="1"></path><path d="m445.4 298.245 15.92 41.52c5.6 14.61 3.72 30.38-5.14 43.28-8.87 12.89-22.93 20.29-38.58 20.29H202.88c-85.68 0-155.38-69.7-155.38-155.38 0-46.87 38.02-85 84.76-85 3.45 0 6.96.21 10.43.63l171.39 20.74c50.86 6.15 94.66 36.87 117.88 81.63" style="stroke-width:15;stroke-linecap:round;stroke-linejoin:round;stroke-miterlimit:10;" fill="none" stroke="#ffffff" stroke-width="15" stroke-linecap="round" stroke-linejoin="round" stroke-miterlimit="10" data-original="#000000" opacity="1"></path><path d="M124.08 216.195c14.95-13.26 34.61-21.31 56.16-21.31 46.78 0 84.71 37.93 84.71 84.71s-37.93 84.7-84.71 84.7-84.7-37.92-84.7-84.7c0-12.75 2.82-24.85 7.87-35.7" style="stroke-width:15;stroke-linecap:round;stroke-linejoin:round;stroke-miterlimit:10;" fill="none" stroke="#ffffff" stroke-width="15" stroke-linecap="round" stroke-linejoin="round" stroke-miterlimit="10" data-original="#000000" opacity="1"></path><circle cx="180.241" cy="279.594" r="51.176" style="stroke-width:15;stroke-linecap:round;stroke-linejoin:round;stroke-miterlimit:10;" fill="none" stroke="#ffffff" stroke-width="15" stroke-linecap="round" stroke-linejoin="round" stroke-miterlimit="10" data-original="#000000" opacity="1"></circle><circle cx="349.343" cy="309.189" r="55.11" style="stroke-width:15;stroke-linecap:round;stroke-linejoin:round;stroke-miterlimit:10;" fill="none" stroke="#ffffff" stroke-width="15" stroke-linecap="round" stroke-linejoin="round" stroke-miterlimit="10" data-original="#000000" opacity="1"></circle><path d="m323.905 317.668 33.918-33.917M340.864 334.627l33.917-33.917M154.803 288.073l33.918-33.917M171.762 305.032l33.917-33.918M434.268 84.049l-26.264 45.478M368.886 68.667l-2.455 52.46M480.268 132.992l-44.211 28.346" style="stroke-width:15;stroke-linecap:round;stroke-linejoin:round;stroke-miterlimit:10;" fill="none" stroke="#ffffff" stroke-width="15" stroke-linecap="round" stroke-linejoin="round" stroke-miterlimit="10" data-original="#000000" opacity="1"></path></g></svg>