<svg xmlns="http://www.w3.org/2000/svg" version="1.1" xmlns:xlink="http://www.w3.org/1999/xlink" width="512" height="512" x="0" y="0" viewBox="0 0 24 24" style="enable-background:new 0 0 512 512" xml:space="preserve" class=""><g><path fill="#ffffff" fill-rule="evenodd" d="M10.919 4.704A7.374 7.374 0 0 0 4.625 12c0 4.075 3.3 7.375 7.375 7.375a7.374 7.374 0 0 0 7.296-6.29A5.96 5.96 0 0 1 8.716 9.33c-.001-1.864.858-3.533 2.203-4.626zM3.375 12A8.623 8.623 0 0 1 12 3.375c.543 0 1.072.043 1.595.14a.625.625 0 0 1 .024 1.224A4.715 4.715 0 0 0 9.965 9.33a4.707 4.707 0 0 0 9.296 1.051.625.625 0 0 1 1.223.024c.098.523.141 1.052.141 1.595A8.623 8.623 0 0 1 12 20.625 8.623 8.623 0 0 1 3.375 12z" clip-rule="evenodd" opacity="1" data-original="#000000" class=""></path></g></svg>